<?xml version="1.0" standalone="no"?><!DOCTYPE svg PUBLIC "-//W3C//DTD SVG 1.1//EN" "http://www.w3.org/Graphics/SVG/1.1/DTD/svg11.dtd"><svg t="1506058405431" class="icon" style="" viewBox="0 0 1024 1024" version="1.1" xmlns="http://www.w3.org/2000/svg" p-id="8850" xmlns:xlink="http://www.w3.org/1999/xlink" width="128" height="128"><defs><style type="text/css"></style></defs><path d="M512.007675 64.303538c-247.25636 0-447.704648 200.448288-447.704648 447.703625s200.448288 447.689299 447.704648 447.689299c247.255337 0 447.688275-200.433962 447.688275-447.689299S759.263012 64.303538 512.007675 64.303538zM512.007675 880.06482c-203.290009 0-368.087333-164.781974-368.087333-368.071983 0-203.27466 164.797323-368.07096 368.087333-368.07096 203.288986 0 368.07096 164.7963 368.07096 368.07096C880.078635 715.281823 715.296661 880.06482 512.007675 880.06482z" fill="#FFA648" p-id="8851"></path><path d="M467.053834 427.378717l89.87596 0 0 382.010437-89.87596 0 0-382.010437Z" fill="#FFA648" p-id="8852"></path><path d="M467.024158 257.170151l89.87596 0 0 91.929736-89.87596 0 0-91.929736Z" fill="#FFA648" p-id="8853"></path></svg>