<?xml version="1.0" standalone="no"?><!DOCTYPE svg PUBLIC "-//W3C//DTD SVG 1.1//EN" "http://www.w3.org/Graphics/SVG/1.1/DTD/svg11.dtd"><svg t="1506057609138" class="icon" style="" viewBox="0 0 1024 1024" version="1.1" xmlns="http://www.w3.org/2000/svg" p-id="2058" xmlns:xlink="http://www.w3.org/1999/xlink" width="128" height="128"><defs><style type="text/css"></style></defs><path d="M960 128 64 128C28.64 128 0 156.64 0 192l0 640c0 35.328 28.64 64 64 64l896 0c35.36 0 64-28.672 64-64L1024 192C1024 156.64 995.36 128 960 128zM256 576 128 576l0-128 128 0L256 576zM448 576l-128 0 0-128 128 0L448 576zM640 704l0-128-128 0 0-128 128 0 0-128 256 192L640 704z" p-id="2059" fill="#1296db"></path></svg>