<?xml version="1.0" standalone="no"?><!DOCTYPE svg PUBLIC "-//W3C//DTD SVG 1.1//EN" "http://www.w3.org/Graphics/SVG/1.1/DTD/svg11.dtd"><svg t="1506057804368" class="icon" style="" viewBox="0 0 1024 1024" version="1.1" xmlns="http://www.w3.org/2000/svg" p-id="2979" xmlns:xlink="http://www.w3.org/1999/xlink" width="128" height="128"><defs><style type="text/css"></style></defs><path d="M280.224728 857.935824c0 12.19167-9.877975 22.060435-22.068621 22.060435L110.090862 879.996259c-12.189623 0-22.030759-9.868765-22.030759-22.060435L88.060103 538.963095c0-12.181437 9.841136-22.068621 22.030759-22.068621l148.065244 0c12.190647 0 22.068621 9.887184 22.068621 22.068621L280.224728 857.935824z" p-id="2980" fill="#d81e06"></path><path d="M503.13561 857.935824c0 12.19167-9.877975 22.060435-22.088064 22.060435L333.021188 879.996259c-12.19167 0-22.050202-9.868765-22.050202-22.060435l0-449.640744c0-12.172227 9.858532-22.068621 22.050202-22.068621l148.026358 0c12.21009 0 22.088064 9.897418 22.088064 22.068621L503.13561 857.935824z" p-id="2981" fill="#d81e06"></path><path d="M726.025003 857.935824c0 12.19167-9.858532 22.060435-22.066575 22.060435L555.911604 879.996259c-12.19167 0-22.031782-9.868765-22.031782-22.060435L533.879821 319.883471c0-12.172227 9.840112-22.060435 22.031782-22.060435l148.046824 0c12.209066 0 22.066575 9.888208 22.066575 22.060435L726.025003 857.935824z" p-id="2982" fill="#d81e06"></path><path d="M948.935885 857.935824c0 12.19167-9.861602 22.060435-22.069645 22.060435L778.821463 879.996259c-12.172227 0-22.052249-9.868765-22.052249-22.060435L756.769214 85.451184c0-12.180414 9.880021-22.059412 22.052249-22.059412l148.044778 0c12.209066 0 22.069645 9.877975 22.069645 22.059412L948.935885 857.935824z" p-id="2983" fill="#d81e06"></path><path d="M957.305507 936.325172c0 12.170181-9.878998 22.068621-22.070668 22.068621L86.531284 958.393793c-12.189623 0-22.050202-9.899464-22.050202-22.068621l0-5.655813c0-12.172227 9.860579-22.051225 22.050202-22.051225l848.703555 0c12.19167 0 22.070668 9.878998 22.070668 22.051225L957.305507 936.325172z" p-id="2984" fill="#d81e06"></path></svg>