<?xml version="1.0" standalone="no"?><!DOCTYPE svg PUBLIC "-//W3C//DTD SVG 1.1//EN" "http://www.w3.org/Graphics/SVG/1.1/DTD/svg11.dtd"><svg t="1506057398306" class="icon" style="" viewBox="0 0 1024 1024" version="1.1" xmlns="http://www.w3.org/2000/svg" p-id="1931" xmlns:xlink="http://www.w3.org/1999/xlink" width="128" height="128"><defs><style type="text/css"></style></defs><path d="M660.745 842.246s125.798-451.324 128.184-505.211-10.823-78.581-8.707-85.836c2.116-7.255 6.678-6.619 12.26-3.843s18.227 32.4 24.148 51.056c7.467 23.527 76.777 469.731 76.777 469.731 2.712 20.644 5.463 35.686-2.291 52.251-7.754 16.565-23.725 25.244-38.505 35.333l-126.926 90.051c-7.578 2.732-15.508 4.141-23.262 4.141-9.869 0-19.737-2.115-28.901-6.432-16.565-7.754-35.892-14.784-30.751-34.012 5.139-19.226 17.974-67.229 17.974-67.229zM189.516 875.024c-44.233-11.895-70.755-57.626-58.86-101.947l144.241-538.194c24.407-91.109 159.661-200.369 300.201-158.78 140.1 41.501 182.306 182.658 155.96 280.992L586.818 895.29c-11.895 44.321-57.626 70.755-101.947 58.859l-295.355-79.125z" fill="#A975D9" p-id="1932"></path><path d="M511.738 295.321m-58.043 0a58.043 58.043 0 1 0 116.086 0 58.043 58.043 0 1 0-116.086 0Z" fill="#FFFFFF" p-id="1933"></path></svg>