<?xml version="1.0" standalone="no"?><!DOCTYPE svg PUBLIC "-//W3C//DTD SVG 1.1//EN" "http://www.w3.org/Graphics/SVG/1.1/DTD/svg11.dtd"><svg t="1506059372097" class="icon" style="" viewBox="0 0 1025 1024" version="1.1" xmlns="http://www.w3.org/2000/svg" p-id="9819" xmlns:xlink="http://www.w3.org/1999/xlink" width="128.125" height="128"><defs><style type="text/css"></style></defs><path d="M512.0015 422.954587c-49.176952 0-89.043913 39.866961-89.043913 89.043913 0 49.178952 39.866961 89.045913 89.043913 89.045913 49.177952 0 89.044913-39.866961 89.044913-89.045913C601.046413 462.821548 561.179452 422.954587 512.0015 422.954587zM512.0015 556.520457c-24.586976 0-44.521957-19.931981-44.521957-44.521957 0-24.586976 19.934981-44.521957 44.521957-44.521957 24.587976 0 44.521957 19.934981 44.521957 44.521957C556.523457 536.587476 536.589476 556.520457 512.0015 556.520457z" p-id="9820" fill="#0b988f"></path><path d="M934.960087 378.43563l-21.866979 0c-6.384994-19.174981-14.195986-37.654963-23.139977-55.498946l15.568985-15.566985c34.774966-34.775966 34.774966-91.154911 0-125.927877l-62.961939-62.962939c-34.774966-34.772966-91.154911-34.772966-125.927877 0l-15.566985 15.568985c-17.841983-8.943991-36.325965-16.754984-55.498946-23.136977l0-21.869979C645.56737 39.863961 605.701408 0 556.523457 0l-89.043913 0c-49.176952 0-89.043913 39.863961-89.043913 89.040913l0 21.869979c-19.173981 6.384994-37.651963 14.192986-55.496946 23.136977l-15.566985-15.568985c-34.775966-34.772966-91.153911-34.772966-125.929877 0l-62.962939 62.962939c-34.771966 34.772966-34.771966 91.151911 0 125.927877l15.571985 15.568985c-8.943991 17.840983-16.754984 36.321965-23.138977 55.495946L89.043913 378.43463c-49.176952 0-89.043913 39.863961-89.043913 89.040913l0 89.043913c0 49.180952 39.866961 89.043913 89.043913 89.043913l21.867979 0c6.382994 19.173981 14.193986 37.654963 23.138977 55.498946l-15.571985 15.567985c-34.771966 34.772966-34.771966 91.153911 0 125.926877l62.962939 62.964939c34.775966 34.774966 91.153911 34.774966 125.929877 0l15.568985-15.568985c17.841983 8.942991 36.320965 16.753984 55.494946 23.135977l0 21.869979c0 49.176952 39.866961 89.040913 89.043913 89.040913l89.043913 0c49.177952 0 89.043913-39.863961 89.043913-89.040913l0-21.866979c19.172981-6.384994 37.653963-14.193986 55.498946-23.138977l15.566985 15.568985c34.772966 34.774966 91.153911 34.774966 125.927877 0l62.961939-62.964939c34.774966-34.772966 34.774966-91.153911 0-125.926877l-15.568985-15.567985c8.943991-17.841983 16.754984-36.324965 23.139977-55.498946l21.866979 0c49.176952 0 89.041913-39.862961 89.041913-89.043913l0-89.043913C1024.002 418.299592 984.137039 378.43563 934.960087 378.43563zM979.480043 556.520457c0 24.591976-19.932981 44.524957-44.520957 44.524957l-9.571991 0-45.765955 0c-9.332991 38.577962-25.109975 74.464927-45.246956 107.401895l32.765968 32.764968 6.900993 6.900993c17.385983 17.385983 17.385983 45.574955 0 62.963939l-62.962939 62.961939c-17.386983 17.388983-45.575955 17.388983-62.961939 0l-39.722961-39.719961c-32.923968 20.09098-68.790933 35.827965-107.346895 45.143956l0 45.923955 0 9.571991c0 24.586976-19.931981 44.521957-44.522957 44.521957l-89.043913 0c-24.586976 0-44.521957-19.934981-44.521957-44.521957l0-9.571991 0-45.923955c-38.553962-9.316991-74.422927-25.052976-107.346895-45.140956l-39.719961 39.716961c-17.389983 17.388983-45.578955 17.388983-62.964939 0l-62.962939-62.961939c-17.386983-17.388983-17.386983-45.577955 0-62.963939l6.903993-6.900993 32.763968-32.764968c-20.13998-32.937968-35.913965-68.824933-45.246956-107.401895L98.615904 601.045413l-9.571991 0c-24.589976 0-44.520957-19.931981-44.520957-44.524957l0-89.043913c0-24.586976 19.930981-44.521957 44.520957-44.521957l9.571991 0 45.765955 0c9.332991-38.577962 25.106975-74.461927 45.246956-107.399895l-32.765968-32.765968-6.900993-6.900993c-17.386983-17.386983-17.386983-45.578955 0-62.964939l62.962939-62.961939c17.385983-17.385983 45.574955-17.385983 62.964939 0l6.900993 6.900993 32.818968 32.818968c32.923968-20.09098 68.791933-35.824965 107.346895-45.140956L422.956587 98.612904l0-9.571991c0-24.589976 19.934981-44.518957 44.521957-44.518957l89.043913 0c24.590976 0 44.522957 19.928981 44.522957 44.518957l0 9.571991 0 45.926955c38.555962 9.316991 74.422927 25.049976 107.346895 45.140956l32.821968-32.817968 6.900993-6.901993c17.385983-17.385983 45.574955-17.385983 62.961939 0l62.962939 62.961939c17.385983 17.385983 17.385983 45.577955 0 62.964939l-6.900993 6.900993-32.765968 32.765968c20.13698 32.937968 35.914965 68.823933 45.246956 107.399895l45.765955 0 9.571991 0c24.586976 0 44.520957 19.934981 44.520957 44.521957L979.479043 556.520457z" p-id="9821" fill="#0b988f"></path><path d="M512.0015 289.388717c-122.94288 0-222.608783 99.666903-222.608783 222.608783 0 122.94488 99.665903 222.608783 222.608783 222.608783 122.94488 0 222.608783-99.664903 222.608783-222.608783C734.610283 389.05662 634.94638 289.388717 512.0015 289.388717zM512.0015 690.088326c-98.355904 0-178.086826-79.733922-178.086826-178.089826 0-98.354904 79.730922-178.086826 178.086826-178.086826 98.354904 0 178.088826 79.732922 178.088826 178.086826C690.090326 610.354404 610.356404 690.088326 512.0015 690.088326z" p-id="9822" fill="#0b988f"></path></svg>